<svg width="39" height="188" viewBox="0 0 39 188" fill="none" xmlns="http://www.w3.org/2000/svg">
<path d="M1 175.432L7.52941 165.128C7.52941 165.128 6.72056 122.95 7.52941 95.944C8.36563 68.0244 5.8626 51.8277 11.8824 24.552C13.9393 15.2317 15.8235 1 18.4118 1C21 1 22.8361 15.2425 24.9412 24.552C31.1106 51.8355 29.4815 68.0003 30.7451 95.944C31.9657 122.936 31.4706 165.128 31.4706 165.128L38 175.432V182.792H30.7451C30.7451 182.792 30.8553 184.145 30.7451 185C30.432 187.43 9.72369 187.356 8.2549 185C7.79868 184.268 8.2549 182.792 8.2549 182.792H1V175.432Z" fill="black" stroke="black" stroke-width="0.5"/>
</svg>
