<svg width="151" height="144" viewBox="0 0 151 144" fill="none" xmlns="http://www.w3.org/2000/svg">
<path d="M6.60129 108.988C3.91257 111.678 5.23203 114.095 6.22786 114.966L1 133.648C2.19499 133.648 3.73851 139.127 4.3609 141.867L5.10777 141.12C6.00401 139.924 7.47285 136.387 8.09524 134.768C11.3815 131.481 10.9582 126.673 10.3358 124.681H37.2231L37.9699 122.439L62.99 122.065H64.1103H68.9649V123.56C68.0687 132.228 73.8195 134.938 76.807 134.395C80.9148 133.648 84.0267 128.292 83.9023 126.549L84.2757 123.56H85.396H112.657L114.15 120.944V126.175H141.411L142.158 133.648C144.398 134.768 147.013 143.362 147.759 142.988C148.357 142.689 149.502 136.637 150 133.648L145.145 116.087C147.535 114.892 147.137 112.351 146.639 111.23L84.2757 23.0548L82.782 11.4725C80.5414 1.38463 76.0602 0.904196 73.0727 1.01093C64.7078 1.30983 62.6165 15.8314 63.3634 23.0548L6.60129 108.988Z" fill="black" stroke="black"/>
</svg>
