<svg width="101" height="166" viewBox="0 0 101 166" fill="none" xmlns="http://www.w3.org/2000/svg">
<path d="M59.0714 14.7782C59.0528 7.94491 53.3492 2.83542 50.4997 1.13485C45.0451 3.88305 42.5621 11.4065 42.0025 14.8247L43.835 60.9449L1.20465 76.4361L1.21861 81.5611L43.8583 69.4865L44.0631 144.653L45.7793 148.065L38.961 151.5L38.975 156.625L47.5094 156.602C47.5243 162.069 49.807 164.568 50.9465 165.134C53.6775 165.127 54.3447 159.431 54.337 156.583L64.5783 156.555L64.5644 151.43L56.0206 148.037L57.7182 144.616L59.2203 69.4447L100.218 81.2914L100.204 76.1664L59.197 60.903L59.0714 14.7782Z" fill="black" stroke="black" stroke-width="0.5"/>
</svg>
